<?xml version="1.0" encoding="utf-8"?>
<svg viewBox="0 0 128 128" xmlns="http://www.w3.org/2000/svg">
<path d="M1.408 1.408h125.184v125.185H1.408z" fill="#F7DF1E"/>
<path d="M89.172 106.574c2.141 3.5 4.924 6.086 9.848 6.086 4.14 0 6.786-2.07 6.786-4.924 0-3.422-2.722-4.637-7.314-6.627l-2.514-1.075c-7.264-3.1-12.09-7.008-12.09-15.24 0-7.584 5.768-13.368 14.778-13.368 6.405 0 11.02 2.23 14.31 7.992l-7.828 5.034c-1.726-3.1-3.59-4.326-6.482-4.326-2.95 0-4.822 1.87-4.822 4.326 0 3.028 1.87 4.243 6.196 6.086l2.514 1.076c8.572 3.668 13.4 7.452 13.4 15.872 0 9.1-7.154 14.028-16.774 14.028-9.388 0-15.442-4.474-18.418-10.356zm-37.01.87c1.55 2.742 2.95 5.054 6.482 5.054 3.31 0 5.404-1.296 5.404-6.316V66.406h10.13v39.82c0 10.486-6.15 15.24-15.126 15.24-8.13 0-12.834-4.21-15.234-9.316z"/>
</svg>