<?xml version="1.0" encoding="utf-8"?>
<svg viewBox="0 0 841.9 595.3" xmlns="http://www.w3.org/2000/svg">
<g fill="#61DAFB">
<circle cx="420.9" cy="296.5" r="45.7"/>
<path d="M520.5 78.1c-32.9-18.7-68.4-27.8-100.7-27.8s-67.8 9.1-100.7 27.8C246.5 96.6 205.9 128.9 183 162c-21.3 31.4-33.2 68.7-33.2 105.9s11.9 74.5 33.2 105.9c22.9 33.1 63.5 65.4 136.1 83.9 32.9 18.7 68.4 27.8 100.7 27.8s67.8-9.1 100.7-27.8c72.6-18.5 113.2-50.8 136.1-83.9 21.3-31.4 33.2-68.7 33.2-105.9s-11.9-74.5-33.2-105.9c-22.9-33.1-63.5-65.4-136.1-83.9z"/>
</g>
</svg>